<?xml version="1.0" encoding="UTF-8" standalone="no"?>
<!-- Created with Inkscape (http://www.inkscape.org/) -->

<svg
   xmlns:dc="http://purl.org/dc/elements/1.1/"
   xmlns:cc="http://creativecommons.org/ns#"
   xmlns:rdf="http://www.w3.org/1999/02/22-rdf-syntax-ns#"
   xmlns:svg="http://www.w3.org/2000/svg"
   xmlns="http://www.w3.org/2000/svg"
   xmlns:sodipodi="http://sodipodi.sourceforge.net/DTD/sodipodi-0.dtd"
   xmlns:inkscape="http://www.inkscape.org/namespaces/inkscape"
   width="54.057411mm"
   height="27.28244mm"
   viewBox="0 0 54.057411 27.28244"
   version="1.1"
   id="svg8"
   inkscape:version="0.92.3 (2405546, 2018-03-11)"
   sodipodi:docname="litex.svg">
  <defs
     id="defs2">
    <clipPath
       id="clipPath1222"
       clipPathUnits="userSpaceOnUse">
      <path
         inkscape:connector-curvature="0"
         id="path1220"
         d="m 1569.68,1209.35 -3.98,7.97 32.08,16.03 3.98,-7.97 -32.08,-16.03" />
    </clipPath>
  </defs>
  <sodipodi:namedview
     id="base"
     pagecolor="#ffffff"
     bordercolor="#666666"
     borderopacity="1.0"
     inkscape:pageopacity="0.0"
     inkscape:pageshadow="2"
     inkscape:zoom="2.8"
     inkscape:cx="94.890036"
     inkscape:cy="80.319454"
     inkscape:document-units="mm"
     inkscape:current-layer="layer1"
     showgrid="false"
     inkscape:window-width="1613"
     inkscape:window-height="995"
     inkscape:window-x="67"
     inkscape:window-y="27"
     inkscape:window-maximized="1" />
  <metadata
     id="metadata5">
    <rdf:RDF>
      <cc:Work
         rdf:about="">
        <dc:format>image/svg+xml</dc:format>
        <dc:type
           rdf:resource="http://purl.org/dc/dcmitype/StillImage" />
        <dc:title />
      </cc:Work>
    </rdf:RDF>
  </metadata>
  <g
     inkscape:label="Calque 1"
     inkscape:groupmode="layer"
     id="layer1"
     transform="translate(-76.941278,-132.79774)">
    <flowRoot
       xml:space="preserve"
       id="flowRoot2080"
       style="font-style:normal;font-weight:normal;font-size:40px;line-height:1.25;font-family:sans-serif;letter-spacing:0px;word-spacing:0px;fill:#000000;fill-opacity:1;stroke:none"><flowRegion
         id="flowRegion2082"><rect
           id="rect2084"
           width="65.154839"
           height="53.033009"
           x="77.781746"
           y="571.48145" /></flowRegion><flowPara
         id="flowPara2086" /></flowRoot>    <path
       inkscape:connector-curvature="0"
       id="path32-7"
       style="fill:#526e92;fill-opacity:1;fill-rule:nonzero;stroke:none;stroke-width:0.01907187"
       d="M 122.61377,155.6394 H 80.446079 c -0.142397,0 -0.257788,-0.1005 -0.257788,-0.22404 v -21.02129 c 0,-0.12374 0.115391,-0.224 0.257788,-0.224 h 42.167691 c 0.14219,0 0.25758,0.10026 0.25758,0.224 v 21.02129 c 0,0.12354 -0.11539,0.22404 -0.25758,0.22404" />
    <path
       inkscape:connector-curvature="0"
       id="path1126-5"
       style="fill:#2d405d;fill-opacity:1;fill-rule:nonzero;stroke:none;stroke-width:0.03527778"
       d="m 92.540763,146.69227 -3.627952,-7.52828 0.23001,-0.11077 3.402882,7.06049 6.378926,-3.0741 0.225427,0.46778 -6.609293,3.18488"
       sodipodi:nodetypes="ccccccc" />
    <path
       inkscape:connector-curvature="0"
       id="path1128-8"
       style="fill:#5bb6b1;fill-opacity:1;fill-rule:nonzero;stroke:none;stroke-width:0.03527778"
       d="m 99.154996,142.92848 -3.627629,-7.52827 -6.609616,3.18523 3.627952,7.52827 6.609293,-3.18523"
       sodipodi:nodetypes="ccccc" />
    <path
       inkscape:connector-curvature="0"
       id="path1130-7"
       style="fill:#ffbc13;fill-opacity:1;fill-rule:nonzero;stroke:none;stroke-width:0.03527778"
       d="m 97.929792,143.28832 0.531997,-0.25683 -0.514007,-1.06609 -0.531627,0.25612 0.513637,1.0668"
       sodipodi:nodetypes="ccccc" />
    <path
       inkscape:connector-curvature="0"
       id="path1132-9"
       style="fill:#ffbc13;fill-opacity:1;fill-rule:nonzero;stroke:none;stroke-width:0.03527778"
       d="m 97.192497,143.64321 0.531978,-0.25612 -0.513988,-1.0668 -0.53199,0.25647 0.514,1.06645"
       sodipodi:nodetypes="ccccc" />
    <path
       inkscape:connector-curvature="0"
       id="path1134-6"
       style="fill:#ffbc13;fill-opacity:1;fill-rule:nonzero;stroke:none;stroke-width:0.03527778"
       d="m 96.455187,143.99881 0.53164,-0.25612 -0.51365,-1.0668 -0.532,0.25647 0.51401,1.06645"
       sodipodi:nodetypes="ccccc" />
    <path
       inkscape:connector-curvature="0"
       id="path1136-0"
       style="fill:#ffbc13;fill-opacity:1;fill-rule:nonzero;stroke:none;stroke-width:0.03527778"
       d="m 95.717517,144.35406 0.532,-0.25647 -0.51401,-1.06645 -0.53163,0.25682 0.51364,1.0661"
       sodipodi:nodetypes="ccccc" />
    <path
       inkscape:connector-curvature="0"
       id="path1138-4"
       style="fill:#ffbc13;fill-opacity:1;fill-rule:nonzero;stroke:none;stroke-width:0.03527778"
       d="m 94.980217,144.70966 0.53198,-0.25647 -0.51399,-1.06645 -0.531987,0.25612 0.513997,1.0668"
       sodipodi:nodetypes="ccccc" />
    <path
       inkscape:connector-curvature="0"
       id="path1140-1"
       style="fill:#ffbc13;fill-opacity:1;fill-rule:nonzero;stroke:none;stroke-width:0.03527778"
       d="m 94.24291,145.06491 0.531637,-0.25647 -0.513647,-1.0661 -0.53199,0.25612 0.514,1.06645"
       sodipodi:nodetypes="ccccc" />
    <path
       inkscape:connector-curvature="0"
       id="path1142-0"
       style="fill:#ffbc13;fill-opacity:1;fill-rule:nonzero;stroke:none;stroke-width:0.03527778"
       d="m 93.50525,145.42015 0.53199,-0.25611 -0.514,-1.0668 -0.53163,0.25647 0.51364,1.06644"
       sodipodi:nodetypes="ccccc" />
    <path
       inkscape:connector-curvature="0"
       id="path1144-4"
       style="fill:#ffbc13;fill-opacity:1;fill-rule:nonzero;stroke:none;stroke-width:0.03527778"
       d="m 92.76795,145.7754 0.53199,-0.25612 -0.514,-1.06644 -0.531987,0.25647 0.513997,1.06609"
       sodipodi:nodetypes="ccccc" />
    <path
       inkscape:connector-curvature="0"
       id="path1146-8"
       style="fill:#96eae7;fill-opacity:1;fill-rule:nonzero;stroke:none;stroke-width:0.03527778"
       d="m 92.74431,139.11143 -0.619827,-1.28623 0.28293,-0.13617 0.620177,1.28587 -0.28328,0.13653"
       sodipodi:nodetypes="ccccc" />
    <path
       inkscape:connector-curvature="0"
       id="path1148-7"
       style="fill:#96eae7;fill-opacity:1;fill-rule:nonzero;stroke:none;stroke-width:0.03527778"
       d="m 95.509737,139.28006 -0.9451,-1.96074 0.28293,-0.13653 0.94545,1.96074 -0.28328,0.13653"
       sodipodi:nodetypes="ccccc" />
    <path
       inkscape:connector-curvature="0"
       id="path1150-0"
       style="fill:#e1e0e2;fill-opacity:1;fill-rule:nonzero;stroke:none;stroke-width:0.03527778"
       d="m 94.48421,137.49147 c 0.0755,0.15593 0.262467,0.22155 0.418747,0.14641 0.15593,-0.0752 0.22119,-0.26247 0.14605,-0.41875 -0.0751,-0.15593 -0.26247,-0.22155 -0.4184,-0.1464 -0.155917,0.0755 -0.221537,0.26281 -0.146397,0.41874"
       sodipodi:nodetypes="ccccc" />
    <path
       inkscape:connector-curvature="0"
       id="path1152-8"
       style="fill:#929194;fill-opacity:1;fill-rule:nonzero;stroke:none;stroke-width:0.03527778"
       d="m 94.677887,137.39799 c 0.0236,0.049 0.0825,0.0699 0.13158,0.0459 0.049,-0.0233 0.0695,-0.0822 0.0459,-0.13124 -0.0236,-0.049 -0.0825,-0.0695 -0.13123,-0.0459 -0.049,0.0236 -0.0695,0.0825 -0.0462,0.13124"
       sodipodi:nodetypes="ccccc" />
    <path
       inkscape:connector-curvature="0"
       id="path1154-6"
       style="fill:#e1e0e2;fill-opacity:1;fill-rule:nonzero;stroke:none;stroke-width:0.03527778"
       d="m 91.918816,137.78251 c 0.0755,0.15593 0.262467,0.2212 0.418747,0.14605 0.15593,-0.0751 0.22154,-0.26246 0.14605,-0.41839 -0.0751,-0.15593 -0.26247,-0.22119 -0.4184,-0.14605 -0.155917,0.0748 -0.221537,0.26247 -0.146397,0.41839"
       sodipodi:nodetypes="ccccc" />
    <path
       inkscape:connector-curvature="0"
       id="path1156-2"
       style="fill:#929194;fill-opacity:1;fill-rule:nonzero;stroke:none;stroke-width:0.03527778"
       d="m 92.112493,137.68868 c 0.0236,0.0494 0.0825,0.0699 0.13158,0.0462 0.049,-0.0236 0.0695,-0.0822 0.0459,-0.13123 -0.0236,-0.049 -0.0822,-0.0695 -0.13123,-0.0462 -0.049,0.024 -0.0695,0.0825 -0.0462,0.13124"
       sodipodi:nodetypes="ccccc" />
    <path
       inkscape:connector-curvature="0"
       id="path1158-4"
       style="fill:#e1e0e2;fill-opacity:1;fill-rule:nonzero;stroke:none;stroke-width:0.03527778"
       d="m 95.465987,139.52841 c 0.0751,0.15628 0.26247,0.22155 0.41875,0.1464 0.15593,-0.0751 0.22119,-0.26246 0.14605,-0.41839 -0.0748,-0.15628 -0.26247,-0.22154 -0.4184,-0.1464 -0.15592,0.0751 -0.22154,0.26246 -0.1464,0.41839"
       sodipodi:nodetypes="ccccc" />
    <path
       inkscape:connector-curvature="0"
       id="path1160-7"
       style="fill:#929194;fill-opacity:1;fill-rule:nonzero;stroke:none;stroke-width:0.03527778"
       d="m 95.660017,139.43528 c 0.0236,0.0487 0.0822,0.0695 0.13123,0.0459 0.049,-0.0236 0.0695,-0.0825 0.0459,-0.13159 -0.0236,-0.0487 -0.0822,-0.0695 -0.13123,-0.0455 -0.049,0.0233 -0.0695,0.0822 -0.0459,0.13124"
       sodipodi:nodetypes="ccccc" />
    <path
       inkscape:connector-curvature="0"
       id="path1162-9"
       style="fill:#96eae7;fill-opacity:1;fill-rule:nonzero;stroke:none;stroke-width:0.03527778"
       d="m 91.247479,141.0256 -0.297027,-0.10372 0.506227,-1.44815 -0.522457,-1.08373 0.282927,-0.13653 0.579257,1.20086 -0.548927,1.57127"
       sodipodi:nodetypes="ccccccc" />
    <path
       inkscape:connector-curvature="0"
       id="path1164-3"
       style="fill:#ffbc13;fill-opacity:1;fill-rule:nonzero;stroke:none;stroke-width:0.03527778"
       d="m 90.750772,138.36883 c 0.0751,0.15628 0.262467,0.22155 0.418397,0.1464 0.15628,-0.0751 0.22154,-0.26246 0.1464,-0.41839 -0.0751,-0.15628 -0.26247,-0.22155 -0.418387,-0.14605 -0.15593,0.0751 -0.22155,0.26247 -0.14641,0.41804"
       sodipodi:nodetypes="ccccc" />
    <path
       inkscape:connector-curvature="0"
       id="path1210-9-6"
       style="fill:#e1e0e2;fill-opacity:1;fill-rule:nonzero;stroke:none;stroke-width:0.03527778"
       d="m 90.765538,141.14629 c 0.0751,0.15593 0.26247,0.22155 0.418397,0.14605 0.155921,-0.0751 0.221541,-0.26246 0.146401,-0.41804 -0.0751,-0.15628 -0.262817,-0.22154 -0.418747,-0.14676 -0.155571,0.0752 -0.221541,0.26282 -0.146051,0.41875"
       sodipodi:nodetypes="ccccc" />
    <path
       inkscape:connector-curvature="0"
       id="path1168-9"
       style="fill:#929194;fill-opacity:1;fill-rule:nonzero;stroke:none;stroke-width:0.03527778"
       d="m 90.954682,141.04289 c 0.0236,0.049 0.0826,0.0699 0.131227,0.0459 0.049,-0.0233 0.0699,-0.0822 0.0462,-0.13124 -0.0236,-0.049 -0.0825,-0.0691 -0.13158,-0.0459 -0.049,0.024 -0.0695,0.0825 -0.0459,0.13124"
       sodipodi:nodetypes="ccccc" />
    <path
       inkscape:connector-curvature="0"
       id="path1170-2"
       style="fill:#e1e0e2;fill-opacity:1;fill-rule:nonzero;stroke:none;stroke-width:0.03527778"
       d="m 95.078637,142.44624 c 0.0751,0.15592 0.26247,0.22154 0.4184,0.1464 0.15628,-0.0751 0.22154,-0.26247 0.1464,-0.41875 -0.0751,-0.15557 -0.26247,-0.22154 -0.4184,-0.14605 -0.15592,0.0751 -0.22154,0.26247 -0.1464,0.4184"
       sodipodi:nodetypes="ccccc" />
    <path
       inkscape:connector-curvature="0"
       id="path1172-8"
       style="fill:#929194;fill-opacity:1;fill-rule:nonzero;stroke:none;stroke-width:0.03527778"
       d="m 95.272667,142.35275 c 0.0233,0.049 0.0822,0.0695 0.13123,0.0462 0.0487,-0.0236 0.0695,-0.0825 0.0459,-0.13158 -0.0236,-0.049 -0.0825,-0.0691 -0.13158,-0.0459 -0.0487,0.0236 -0.0691,0.0825 -0.0455,0.13123"
       sodipodi:nodetypes="ccccc" />
    <path
       inkscape:connector-curvature="0"
       id="path1174-3"
       style="fill:#96eae7;fill-opacity:1;fill-rule:nonzero;stroke:none;stroke-width:0.03527778"
       d="m 96.286207,142.05501 -0.14006,-0.28082 1.13172,-0.56585 0.140398,0.28116 -1.132058,0.56551"
       sodipodi:nodetypes="ccccc" />
    <path
       inkscape:connector-curvature="0"
       id="path1176-0"
       style="fill:#e1e0e2;fill-opacity:1;fill-rule:nonzero;stroke:none;stroke-width:0.03527778"
       d="m 96.134857,141.60486 c -0.15487,0.0776 -0.21767,0.26564 -0.14041,0.42051 0.0776,0.15487 0.26565,0.21802 0.42052,0.14041 0.15487,-0.0776 0.21767,-0.26564 0.14041,-0.42051 -0.0776,-0.15487 -0.26564,-0.21802 -0.42052,-0.14041"
       sodipodi:nodetypes="ccccc" />
    <path
       inkscape:connector-curvature="0"
       id="path1178-1"
       style="fill:#929194;fill-opacity:1;fill-rule:nonzero;stroke:none;stroke-width:0.03527778"
       d="m 96.230817,141.79748 c -0.0483,0.024 -0.0681,0.0832 -0.0437,0.13194 0.0243,0.0487 0.0833,0.0681 0.13194,0.0437 0.0487,-0.024 0.0681,-0.0832 0.0438,-0.13194 -0.0243,-0.0487 -0.0833,-0.0681 -0.13194,-0.0437"
       sodipodi:nodetypes="ccccc" />
    <path
       inkscape:connector-curvature="0"
       id="path1180-7"
       style="fill:#e1e0e2;fill-opacity:1;fill-rule:nonzero;stroke:none;stroke-width:0.03527778"
       d="m 94.925887,139.96938 0.75036,-0.36159 -0.14111,-0.29281 -0.75072,0.36125 0.14147,0.29315"
       sodipodi:nodetypes="ccccc" />
    <path
       inkscape:connector-curvature="0"
       id="path1182-8"
       style="fill:#e1e0e2;fill-opacity:1;fill-rule:nonzero;stroke:none;stroke-width:0.03527778"
       d="m 95.282547,140.70986 0.75035,-0.36159 -0.14146,-0.29316 -0.75036,0.3616 0.14147,0.29315"
       sodipodi:nodetypes="ccccc" />
    <path
       inkscape:connector-curvature="0"
       id="path1184-9"
       style="fill:#e1e0e2;fill-opacity:1;fill-rule:nonzero;stroke:none;stroke-width:0.03527778"
       d="m 92.310753,141.22986 0.750347,-0.36195 -0.14111,-0.29316 -0.750347,0.36195 0.14111,0.29316"
       sodipodi:nodetypes="ccccc" />
    <path
       inkscape:connector-curvature="0"
       id="path1186-1"
       style="fill:#e1e0e2;fill-opacity:1;fill-rule:nonzero;stroke:none;stroke-width:0.03527778"
       d="m 92.6674,141.96999 0.75072,-0.3616 -0.14147,-0.29316 -0.750357,0.3616 0.141107,0.29316"
       sodipodi:nodetypes="ccccc" />
    <path
       inkscape:connector-curvature="0"
       id="path1188-5"
       style="fill:#e1e0e2;fill-opacity:1;fill-rule:nonzero;stroke:none;stroke-width:0.03527778"
       d="m 94.784777,141.4888 0.36159,0.75036 0.29316,-0.14112 -0.36195,-0.75035 -0.2928,0.14111"
       sodipodi:nodetypes="ccccc" />
    <path
       inkscape:connector-curvature="0"
       id="path1190-4"
       style="fill:#e1e0e2;fill-opacity:1;fill-rule:nonzero;stroke:none;stroke-width:0.03527778"
       d="m 94.0443,141.84546 0.36159,0.75071 0.293507,-0.14147 -0.361947,-0.75071 -0.29315,0.14147"
       sodipodi:nodetypes="ccccc" />
    <path
       inkscape:connector-curvature="0"
       id="path1192-9"
       style="fill:#e1e0e2;fill-opacity:1;fill-rule:nonzero;stroke:none;stroke-width:0.03527778"
       d="m 93.5243,138.87401 0.3616,0.75036 0.29316,-0.14147 -0.3616,-0.75036 -0.29316,0.14147"
       sodipodi:nodetypes="ccccc" />
    <path
       inkscape:connector-curvature="0"
       id="path1194-2"
       style="fill:#e1e0e2;fill-opacity:1;fill-rule:nonzero;stroke:none;stroke-width:0.03527778"
       d="m 92.78417,139.23067 0.3616,0.75071 0.29316,-0.14182 -0.3616,-0.75036 -0.29316,0.14147"
       sodipodi:nodetypes="ccccc" />
    <path
       inkscape:connector-curvature="0"
       id="path1196-5"
       style="fill:#3a5070;fill-opacity:1;fill-rule:nonzero;stroke:none;stroke-width:0.03527778"
       d="m 93.5871,142.24939 2.091257,-1.00754 -1.00788,-2.09162 -2.091267,1.00789 1.00789,2.09127"
       sodipodi:nodetypes="ccccc" />
    <path
       inkscape:connector-curvature="0"
       id="path1198-7"
       style="fill:#e1e0e2;fill-opacity:1;fill-rule:nonzero;stroke:none;stroke-width:0.03527778"
       d="m 92.64835,139.29593 c 0.0751,0.15628 0.26247,0.22155 0.41875,0.1464 0.15558,-0.0751 0.22119,-0.26246 0.14605,-0.41839 -0.0751,-0.15628 -0.26246,-0.22155 -0.41839,-0.1464 -0.15593,0.0751 -0.221547,0.26282 -0.14641,0.41839"
       sodipodi:nodetypes="ccccc" />
    <path
       inkscape:connector-curvature="0"
       id="path1200-4"
       style="fill:#929194;fill-opacity:1;fill-rule:nonzero;stroke:none;stroke-width:0.03527778"
       d="m 92.84203,139.20244 c 0.0236,0.049 0.0825,0.0699 0.13123,0.0459 0.0494,-0.0233 0.0699,-0.0822 0.0462,-0.13124 -0.0236,-0.0487 -0.0825,-0.0691 -0.13123,-0.0459 -0.049,0.0236 -0.0699,0.0825 -0.0462,0.13123"
       sodipodi:nodetypes="ccccc" />
    <path
       inkscape:connector-curvature="0"
       id="path1202-9"
       style="fill:#ffbc13;fill-opacity:1;fill-rule:nonzero;stroke:none;stroke-width:0.03527778"
       d="m 93.38848,138.93927 c 0.0755,0.15628 0.26247,0.22155 0.41875,0.14605 0.15593,-0.0748 0.22154,-0.26246 0.14605,-0.41804 -0.0751,-0.15593 -0.26247,-0.22154 -0.41839,-0.1464 -0.15593,0.0751 -0.22155,0.26246 -0.14641,0.41839"
       sodipodi:nodetypes="ccccc" />
    <path
       inkscape:connector-curvature="0"
       id="path1204-9"
       style="fill:#ffbc13;fill-opacity:1;fill-rule:nonzero;stroke:none;stroke-width:0.03527778"
       d="m 91.911406,141.24362 c 0.0751,0.15592 0.262467,0.22154 0.418397,0.14605 0.15592,-0.0751 0.22154,-0.26247 0.1464,-0.4184 -0.0751,-0.15593 -0.26247,-0.22154 -0.4184,-0.1464 -0.156277,0.0751 -0.221537,0.26247 -0.146397,0.41875"
       sodipodi:nodetypes="ccccc" />
    <path
       inkscape:connector-curvature="0"
       id="path1206-4"
       style="fill:#e1e0e2;fill-opacity:1;fill-rule:nonzero;stroke:none;stroke-width:0.03527778"
       d="m 95.817707,140.32251 c 0.0751,0.15628 0.26247,0.22155 0.4184,0.14641 0.15593,-0.0751 0.22155,-0.26247 0.14641,-0.4184 -0.0751,-0.15593 -0.26283,-0.22154 -0.41876,-0.14605 -0.15557,0.0751 -0.22119,0.26247 -0.14605,0.41804"
       sodipodi:nodetypes="ccccc" />
    <path
       inkscape:connector-curvature="0"
       id="path1208-5"
       style="fill:#929194;fill-opacity:1;fill-rule:nonzero;stroke:none;stroke-width:0.03527778"
       d="m 96.011387,140.22938 c 0.0236,0.0487 0.0826,0.0695 0.13123,0.0462 0.049,-0.024 0.0695,-0.0829 0.0462,-0.13194 -0.0236,-0.0487 -0.0825,-0.0692 -0.13159,-0.0455 -0.049,0.0236 -0.0695,0.0822 -0.0459,0.13123"
       sodipodi:nodetypes="ccccc" />
    <path
       inkscape:connector-curvature="0"
       id="path1210-9"
       style="fill:#e1e0e2;fill-opacity:1;fill-rule:nonzero;stroke:none;stroke-width:0.03527778"
       d="m 92.246543,142.00244 c 0.0751,0.15593 0.26247,0.22155 0.418397,0.14605 0.15592,-0.0751 0.22154,-0.26246 0.1464,-0.41804 -0.0751,-0.15628 -0.262817,-0.22154 -0.418747,-0.14676 -0.15557,0.0752 -0.22154,0.26282 -0.14605,0.41875"
       sodipodi:nodetypes="ccccc" />
    <path
       inkscape:connector-curvature="0"
       id="path1212-3"
       style="fill:#929194;fill-opacity:1;fill-rule:nonzero;stroke:none;stroke-width:0.03527778"
       d="m 92.440223,141.90896 c 0.0236,0.049 0.0825,0.0695 0.13123,0.0459 0.049,-0.0233 0.0695,-0.0822 0.0462,-0.13124 -0.0236,-0.0487 -0.0825,-0.0695 -0.131587,-0.0459 -0.049,0.0236 -0.0695,0.0825 -0.0459,0.13124"
       sodipodi:nodetypes="ccccc" />
    <path
       inkscape:connector-curvature="0"
       id="path1214-5"
       style="fill:#ffbc13;fill-opacity:1;fill-rule:nonzero;stroke:none;stroke-width:0.03527778"
       d="m 97.167097,141.43376 c 0.0751,0.15593 0.262458,0.22155 0.418388,0.14641 0.15593,-0.0751 0.22154,-0.26247 0.1464,-0.41875 -0.0755,-0.15593 -0.26246,-0.22154 -0.418738,-0.14605 -0.15593,0.0751 -0.22155,0.26247 -0.14605,0.41839"
       sodipodi:nodetypes="ccccc" />
    <path
       inkscape:connector-curvature="0"
       id="path1174-3-4"
       style="fill:#96eae7;fill-opacity:1;fill-rule:nonzero;stroke:none;stroke-width:0.03527778"
       d="m 92.369303,144.01857 -0.14005,-0.28082 1.131707,-0.56585 0.1404,0.28116 -1.132057,0.56551"
       sodipodi:nodetypes="ccccc" />
    <path
       inkscape:connector-curvature="0"
       id="path1226-0"
       style="fill:#e1e0e2;fill-opacity:1;fill-rule:nonzero;stroke:none;stroke-width:0.03527778"
       d="m 92.132953,143.54514 c -0.154867,0.0776 -0.217667,0.26564 -0.140057,0.42051 0.0773,0.15487 0.265647,0.21802 0.420507,0.14041 0.15452,-0.0776 0.217667,-0.26565 0.14006,-0.42052 -0.0773,-0.15486 -0.26564,-0.21801 -0.42051,-0.1404"
       sodipodi:nodetypes="ccccc" />
    <path
       inkscape:connector-curvature="0"
       id="path1228-8"
       style="fill:#929194;fill-opacity:1;fill-rule:nonzero;stroke:none;stroke-width:0.03527778"
       d="m 92.229253,143.73776 c -0.0487,0.024 -0.0684,0.0832 -0.0441,0.13193 0.0243,0.0487 0.0833,0.0681 0.13194,0.0437 0.0487,-0.024 0.0681,-0.0833 0.0441,-0.13194 -0.0243,-0.0487 -0.0836,-0.0681 -0.13194,-0.0437"
       sodipodi:nodetypes="ccccc" />
    <path
       inkscape:connector-curvature="0"
       id="path1230-1"
       style="fill:#ffbc13;fill-opacity:1;fill-rule:nonzero;stroke:none;stroke-width:0.03527778"
       d="m 93.16517,143.37404 c 0.0751,0.15593 0.26247,0.22155 0.4184,0.1464 0.15593,-0.0751 0.22154,-0.26246 0.1464,-0.41874 -0.0751,-0.15593 -0.26247,-0.22155 -0.41875,-0.14605 -0.15557,0.0751 -0.22154,0.26246 -0.14605,0.41839"
       sodipodi:nodetypes="ccccc" />
    <text
       xml:space="preserve"
       style="font-style:normal;font-weight:normal;font-size:10.58333302px;line-height:1.25;font-family:sans-serif;letter-spacing:0px;word-spacing:0px;fill:#ffffff;fill-opacity:1;stroke:none;stroke-width:0.26458332"
       x="80.832588"
       y="154.35753"
       id="text3349-8"><tspan
         sodipodi:role="line"
         id="tspan3347-7"
         x="80.832588"
         y="154.35753"
         style="font-style:italic;font-variant:normal;font-weight:normal;font-stretch:normal;font-family:Ubuntu;-inkscape-font-specification:'Ubuntu Italic';fill:#ffffff;fill-opacity:1;stroke-width:0.26458332">Lite</tspan></text>
    <text
       xml:space="preserve"
       style="font-style:normal;font-weight:normal;font-size:10.58333302px;line-height:1.25;font-family:sans-serif;letter-spacing:0px;word-spacing:0px;fill:#526e92;fill-opacity:1;stroke:none;stroke-width:0.26458332"
       x="80.186417"
       y="159.13823"
       id="text3437"><tspan
         sodipodi:role="line"
         id="tspan3435"
         x="80.186417"
         y="159.13823"
         style="font-style:normal;font-variant:normal;font-weight:normal;font-stretch:normal;font-size:3.52777767px;font-family:ubuntu;-inkscape-font-specification:ubuntu;fill:#526e92;fill-opacity:1;stroke-width:0.26458332">Build your hardware, easily!</tspan></text>
    <path
       inkscape:connector-curvature="0"
       id="path1238-1"
       style="fill:#ffffff;fill-opacity:1;fill-rule:nonzero;stroke:none;stroke-width:0.03527778"
       d="m 125.14757,134.49633 0.81155,-0.002 -0.0254,-0.7164 0.61345,-0.14205 0.0494,-0.44964 -0.3927,-0.33481 -1.9251,1.4528 0.90475,0.77187 -0.0359,-0.58004" />
    <path
       inkscape:connector-curvature="0"
       id="path1240-9"
       style="fill:#e1e0e2;fill-opacity:1;fill-rule:nonzero;stroke:none;stroke-width:0.03527778"
       d="m 125.93371,133.77825 0.0254,0.7164 -0.81155,0.002 0.0359,0.58005 0.64698,0.55234 c 0.0429,-0.0503 1.29424,-1.99124 1.29424,-1.99124 l -0.52816,-0.45097 -0.0494,0.44964 -0.61344,0.14207" />
    <path
       inkscape:connector-curvature="0"
       id="path1242-9"
       style="fill:#3a5070;fill-opacity:1;fill-rule:nonzero;stroke:none;stroke-width:0.03527778"
       d="m 124.70127,137.58461 c 0.44023,-0.51595 1.13475,-1.44865 1.3848,-1.94505 l -1.85822,-1.58554 c -0.4509,0.32514 -1.26261,1.1572 -1.70284,1.67317 -1.27881,1.49881 -1.82824,3.12942 -1.22726,3.6421 0.60097,0.51267 2.12479,-0.2862 3.40352,-1.78468" />
    <text
       xml:space="preserve"
       style="font-style:italic;font-variant:normal;font-weight:bold;font-stretch:normal;font-size:10.58333302px;line-height:1.25;font-family:Ubuntu;-inkscape-font-specification:'Ubuntu Bold Italic';letter-spacing:0px;word-spacing:0px;fill:#3b5170;fill-opacity:1;stroke:none;stroke-width:0.26458332"
       x="97.834213"
       y="155.01923"
       id="text2281-9"><tspan
         sodipodi:role="line"
         id="tspan2279-6"
         x="97.834213"
         y="155.01923"
         style="font-style:italic;font-variant:normal;font-weight:bold;font-stretch:normal;font-size:28.22222137px;font-family:Ubuntu;-inkscape-font-specification:'Ubuntu Bold Italic';fill:#3b5170;fill-opacity:1;stroke-width:0.26458332">X</tspan></text>
    <text
       xml:space="preserve"
       style="font-style:italic;font-variant:normal;font-weight:bold;font-stretch:normal;font-size:10.58333302px;line-height:1.25;font-family:Ubuntu;-inkscape-font-specification:'Ubuntu Bold Italic';letter-spacing:0px;word-spacing:0px;fill:#6dc7c7;fill-opacity:1;stroke:none;stroke-width:0.26458332"
       x="97.3088"
       y="154.80815"
       id="text2281"><tspan
         sodipodi:role="line"
         id="tspan2279"
         x="97.3088"
         y="154.80815"
         style="font-style:italic;font-variant:normal;font-weight:bold;font-stretch:normal;font-size:28.22222137px;font-family:Ubuntu;-inkscape-font-specification:'Ubuntu Bold Italic';fill:#6dc7c7;fill-opacity:1;stroke-width:0.26458332">X</tspan></text>
    <path
       inkscape:connector-curvature="0"
       id="path1244-6"
       style="fill:#3a5070;fill-opacity:1;fill-rule:nonzero;stroke:none;stroke-width:0.03527778"
       d="m 98.514729,154.74183 11.082501,-2.67158 -0.43533,-1.21144 -0.43533,-1.21215 -10.248891,4.99216 c -0.0494,0.024 -0.0162,0.11607 0.037,0.10301" />
    <path
       inkscape:connector-curvature="0"
       id="path1246-06"
       style="fill:#ced4dd;fill-opacity:1;fill-rule:nonzero;stroke:none;stroke-width:0.03527778"
       d="m 112.03245,149.10409 0.46038,1.28094 -3.23498,1.16205 -0.46002,-1.28059 3.23462,-1.1624" />
    <path
       inkscape:connector-curvature="0"
       id="path1248-4"
       style="fill:#3a5070;fill-opacity:1;fill-rule:nonzero;stroke:none;stroke-width:0.03527778"
       d="m 122.85955,145.06338 0.55598,1.54869 c 0.0885,0.24624 -0.0392,0.51752 -0.28575,0.60642 l -10.51701,3.7779 c -0.0448,0.0162 -0.0942,-0.007 -0.11042,-0.0519 l -0.81809,-2.27824 c -0.0162,-0.0448 0.007,-0.0942 0.0519,-0.11042 l 10.51701,-3.77825 c 0.24624,-0.0882 0.51788,0.0395 0.60643,0.28575" />
    <path
       inkscape:connector-curvature="0"
       id="path1250-9"
       style="fill:#3a5070;fill-opacity:1;fill-rule:nonzero;stroke:none;stroke-width:0.03527778"
       d="m 123.1326,147.66617 0.55034,-0.19756 c 0.78246,-0.28081 1.3155,-1.06468 1.19239,-1.887 -0.16581,-1.10455 -1.28764,-1.7325 -2.28424,-1.37443 l -0.62124,0.22296 c -0.0917,0.0332 -0.13935,0.13441 -0.10654,0.22613 l 1.04352,2.90336 c 0.0328,0.0921 0.1337,0.1397 0.22577,0.10654" />
    <path
       inkscape:connector-curvature="0"
       id="path1252-9"
       style="fill:#3a5070;fill-opacity:1;fill-rule:nonzero;stroke:none;stroke-width:0.03527778"
       d="m 109.09628,149.19405 1.07421,2.99014 c 0.0243,0.0681 -0.0106,0.14288 -0.0787,0.16722 l -0.9652,0.34678 c -0.0681,0.0243 -0.14288,-0.0109 -0.16722,-0.0787 l -1.07455,-2.99049 c -0.024,-0.0677 0.0109,-0.14253 0.079,-0.16687 l 0.96519,-0.34713 c 0.0681,-0.024 0.14288,0.0113 0.16722,0.079" />
    <path
       inkscape:connector-curvature="0"
       id="path1254-08"
       style="fill:#3a5070;fill-opacity:1;fill-rule:nonzero;stroke:none;stroke-width:0.03527778"
       d="m 110.94025,147.80869 1.07421,2.99015 c 0.0243,0.0677 -0.0109,0.14287 -0.079,0.16721 l -0.69956,0.25118 c -0.0681,0.0247 -0.14287,-0.0106 -0.16757,-0.0783 l -1.07421,-2.9905 c -0.0243,-0.0677 0.0109,-0.14252 0.079,-0.16686 l 0.69991,-0.25153 c 0.0677,-0.0247 0.14253,0.0109 0.16722,0.0787" />
    <path
       inkscape:connector-curvature="0"
       id="path1256-9"
       style="fill:#3a5070;fill-opacity:1;fill-rule:nonzero;stroke:none;stroke-width:0.03527778"
       d="m 129.66111,144.06008 -5.69066,2.68075 -0.38276,-1.06503 -0.38241,-1.06469 6.09529,-1.55363 0.36054,1.0026" />
    <path
       inkscape:connector-curvature="0"
       id="path1258-3"
       style="fill:#ffbc13;fill-opacity:1;fill-rule:nonzero;stroke:none;stroke-width:0.03527778"
       d="m 113.80657,147.54834 0.95744,2.66594 -0.99977,0.35878 -0.95744,-2.66524 0.99977,-0.35948" />
    <path
       inkscape:connector-curvature="0"
       id="path1260-1"
       style="fill:#526e92;fill-opacity:1;fill-rule:nonzero;stroke:none;stroke-width:0.03527778"
       d="m 112.236,150.20299 -0.37288,-1.03787 1.23578,-0.44379 0.37288,1.03787 -1.23578,0.44379 m 2.23556,-0.80292 -0.37289,-1.03787 8.05639,-2.89419 0.37288,1.03787 -8.05638,2.89419" />
    <path
       inkscape:connector-curvature="0"
       id="path1262-4"
       style="fill:#ffc74b;fill-opacity:1;fill-rule:nonzero;stroke:none;stroke-width:0.03527778"
       d="m 113.47178,149.7592 -0.37288,-1.03787 0.99977,-0.35913 0.37289,1.03787 -0.99978,0.35913" />
    <path
       inkscape:connector-curvature="0"
       id="path1264-8"
       style="fill:#3a5070;fill-opacity:1;fill-rule:nonzero;stroke:none;stroke-width:0.02972035"
       d="m 110.85986,149.57815 c -0.14881,-0.29913 -3.60957,-7.35142 -0.59082,-10.24298 1.35834,-1.30245 3.56071,-0.81871 5.68963,-0.35097 2.69958,0.59284 5.24843,1.15209 6.23269,-1.52992 l 0.45334,0.22364 c -1.13887,3.10463 -4.00494,2.47659 -6.77769,1.86713 -2.11015,-0.46295 -4.10379,-0.90029 -5.28405,0.23003 -2.69932,2.58602 0.66923,9.44827 0.70374,9.51738 l -0.42684,0.28569" />
    <path
       inkscape:connector-curvature="0"
       id="path1256-9-7"
       style="fill:#3a5070;fill-opacity:1;fill-rule:nonzero;stroke:none;stroke-width:0.03527778"
       d="m 130.61425,143.75656 -5.69066,2.68075 -0.38276,-1.06503 -0.38241,-1.06469 6.09529,-1.55363 0.36054,1.0026" />
    <rect
       style="opacity:0;fill:#526e92;fill-opacity:1;stroke-width:0.26458332"
       id="rect86"
       width="40.348957"
       height="27.970238"
       x="77.711678"
       y="131.64223" />
    <path
       inkscape:connector-curvature="0"
       id="path32-7-3"
       style="fill:#000000;fill-opacity:0;fill-rule:nonzero;stroke:none;stroke-width:0.024195"
       d="M 130.67248,160.08018 H 77.267762 c -0.180344,0 -0.326484,-0.12771 -0.326484,-0.2847 v -26.71309 c 0,-0.15725 0.14614,-0.28465 0.326484,-0.28465 h 53.404718 c 0.18009,0 0.32621,0.1274 0.32621,0.28465 v 26.71309 c 0,0.15699 -0.14612,0.2847 -0.32621,0.2847" />
  </g>
</svg>
